<svg xmlns="http://www.w3.org/2000/svg" width="128" height="128" xml:space="preserve"><path fill="#282D33" d="M105.128 125.021v-2c-.005-55.55-44.578-100.744-99.36-100.744h-2V0h2C72.696-.003 127.152 55.183 127.16 123.018v2l-22.032.003zM7.768 18.296c55.411 1.07 100.291 46.564 101.341 102.725l14.034-.004C122.089 56.987 70.91 5.095 7.768 4.017v14.279z"/><path fill="#282D33" d="M94.742 125.02H72.708v-2c-.001-18.091-6.935-35.1-19.527-47.908l-.094-.093C40.438 62.204 23.638 55.147 5.778 55.147h-2l-.022-2V32.87h2c23.738 0 46.047 9.348 62.844 26.324l.098.096C85.49 76.313 94.74 98.947 94.742 123.02v2zm-18.061-4H90.72c-.497-22.229-9.257-43.052-24.792-58.842l-.093-.09C50.257 46.301 29.698 37.4 7.756 36.892v14.283c18.167.506 35.166 7.896 48.087 20.942l.102.101c12.922 13.099 20.242 30.361 20.736 48.802z"/><path fill="#282D33" d="m60.583 125.021-22.029-.002-.001-1.999c-.008-18.337-14.721-33.255-32.797-33.255h-2l.002-22.282 2 .001c30.227.008 54.821 24.922 54.825 55.537v2zM42.5 121.02l14.045.002C55.527 94.207 34.201 72.575 7.758 71.524L7.756 85.82c18.702 1.02 33.742 16.255 34.744 35.2z"/><path fill="#282D33" d="m13.277 128-.021-2 .009-2c2.256 0 4.367-.89 5.958-2.504a8.588 8.588 0 0 0 2.477-6.072c0-2.288-.882-4.44-2.484-6.063a8.314 8.314 0 0 0-11.861-.045 8.573 8.573 0 0 0-2.514 6.114 8.58 8.58 0 0 0 2.474 6.075A8.302 8.302 0 0 0 13.256 124v4c-3.32 0-6.441-1.31-8.789-3.687a12.552 12.552 0 0 1-3.626-8.885 12.538 12.538 0 0 1 3.684-8.939 12.289 12.289 0 0 1 8.749-3.638c3.322.002 6.443 1.316 8.791 3.7a12.55 12.55 0 0 1 3.636 8.871 12.567 12.567 0 0 1-3.627 8.881c-2.351 2.385-5.475 3.697-8.797 3.697z"/></svg>